name E:\Dropbox\SEL\BOX\Experiment\240124_SUB1_PJH\c3d\XYZ\UpDown_TrcMot\15_10_trial1_U1_ExtLoadAPP1.mot
datacolumns 37
datarows 6
range 3.618 3.623
endheader

time	    ground_force1_vx	    ground_force1_vy	    ground_force1_vz	    ground_force1_px	    ground_force1_py	    ground_force1_pz	    ground_torque1_x	    ground_torque1_y	    ground_torque1_z	    ground_force2_vx	    ground_force2_vy	    ground_force2_vz	    ground_force2_px	    ground_force2_py	    ground_force2_pz	    ground_torque2_x	    ground_torque2_y	    ground_torque2_z	      hand_force3_vx	      hand_force3_vy	      hand_force3_vz	      hand_force3_px	      hand_force3_py	      hand_force3_pz	      hand_torque3_x	      hand_torque3_y	      hand_torque3_z	      hand_force4_vx	      hand_force4_vy	      hand_force4_vz	      hand_force4_px	      hand_force4_py	      hand_force4_pz	      hand_torque4_x	      hand_torque4_y	      hand_torque4_z	
3.618	         38.11420818	        400.89984742	         -5.66146954	          0.22581036	          0.00000000	          0.23740186	          0.00000000	         -4.71641363	          0.00000000	        -47.68784919	        455.30554174	         -0.57836465	          0.58543308	          0.00000000	          0.21489647	          0.00000000	          4.61027716	          0.00000000	        -12.17665791	        -60.20426564	          1.73808418	          0.21419567	          1.02727453	         -0.21067739	          0.03141017	         -1.11709128	         -0.04669363	         13.26731843	        -59.05032532	          0.71248895	          0.61266820	          1.02727453	         -0.20590152	         -0.02020311	          0.71295644	          0.03023014	
3.619	         38.09881049	        400.78707996	         -5.50072358	          0.22576159	          0.00000000	          0.23678093	          0.00000000	         -4.69899840	          0.00000000	        -47.72794229	        455.32740996	         -0.55765752	          0.58543531	          0.00000000	          0.21459062	          0.00000000	          4.58903346	          0.00000000	        -12.12531661	        -60.25598129	          1.64095962	          0.21412597	          1.02709373	         -0.21137339	          0.03141252	         -1.11180216	         -0.04682641	         13.18047582	        -59.08074967	          0.62015345	          0.61261209	          1.02709373	         -0.20660003	         -0.02024401	          0.71067606	          0.03038590	
3.62	         38.08609877	        400.66563640	         -5.33804739	          0.22571211	          0.00000000	          0.23615681	          0.00000000	         -4.68101114	          0.00000000	        -47.76579844	        455.34145085	         -0.53505722	          0.58543668	          0.00000000	          0.21428478	          0.00000000	          4.56762219	          0.00000000	        -12.07065659	        -60.30874441	          1.54024417	          0.21405806	          1.02691108	         -0.21206973	          0.03140687	         -1.10639272	         -0.04694707	         13.09427576	        -59.10985120	          0.52852268	          0.61255581	          1.02691108	         -0.20729905	         -0.02028338	          0.70846182	          0.03053947	
3.621	         38.07616366	        400.53631874	         -5.17357686	          0.22566196	          0.00000000	          0.23552979	          0.00000000	         -4.66246017	          0.00000000	        -47.80129516	        455.34763717	         -0.51055325	          0.58543721	          0.00000000	          0.21397898	          0.00000000	          4.54606190	          0.00000000	        -12.01268944	        -60.36246655	          1.43599556	          0.21399190	          1.02672662	         -0.21276640	          0.03139324	         -1.10086468	         -0.04705565	         13.00871617	        -59.13782134	          0.43760400	          0.61249939	          1.02672662	         -0.20799847	         -0.02032107	          0.70630704	          0.03069062	
3.622	         38.06908878	        400.39994970	         -5.00745117	          0.22561116	          0.00000000	          0.23490016	          0.00000000	         -4.64335511	          0.00000000	        -47.83431884	        455.34597568	         -0.48414373	          0.58543689	          0.00000000	          0.21367324	          0.00000000	          4.52437141	          0.00000000	        -11.95143935	        -60.41705674	          1.32828377	          0.21392743	          1.02654034	         -0.21346335	          0.03137172	         -1.09522015	         -0.04715223	         12.92379234	        -59.16486191	          0.34739639	          0.61244284	          1.02654034	         -0.20869816	         -0.02035690	          0.70420484	          0.03083909	
3.623	         38.06495026	        400.25736914	         -4.83981218	          0.22555973	          0.00000000	          0.23426823	          0.00000000	         -4.62370689	          0.00000000	        -47.86476523	        455.33650750	         -0.45583523	          0.58543574	          0.00000000	          0.21336760	          0.00000000	          4.50256966	          0.00000000	        -11.88694308	        -60.47242253	          1.21719018	          0.21386459	          1.02635227	         -0.21416056	          0.03134239	         -1.08946158	         -0.04723693	         12.83949692	        -59.19118417	          0.25789042	          0.61238617	          1.02635227	         -0.20939802	         -0.02039074	          0.70214816	          0.03098461	
